<svg width="49" height="39" viewBox="0 0 49 39" fill="none" xmlns="http://www.w3.org/2000/svg">
<path d="M0.000156432 38.88V26.1C0.000156432 22.74 0.300157 19.62 0.900157 16.74C1.62016 13.86 2.76016 11.04 4.32016 8.27998C6.00016 5.39998 8.16016 2.63998 10.8002 -2.40803e-05L17.8202 5.21997C15.7802 7.49997 14.1602 9.65997 12.9602 11.7C11.7602 13.74 10.9202 15.72 10.4402 17.64C9.96016 19.56 9.72016 21.54 9.72016 23.58L5.40016 20.52H18.3602V38.88H0.000156432ZM29.8802 38.88V26.1C29.8802 22.74 30.1802 19.62 30.7802 16.74C31.5002 13.86 32.6402 11.04 34.2002 8.27998C35.8802 5.39998 38.0402 2.63998 40.6802 -2.40803e-05L47.7002 5.21997C45.6602 7.49997 44.0402 9.65997 42.8402 11.7C41.6402 13.74 40.8002 15.72 40.3202 17.64C39.8402 19.56 39.6002 21.54 39.6002 23.58L35.2802 20.52H48.2402V38.88H29.8802Z" fill="black"/>
</svg>
